HIERARCHY
ROOT Hips
{
	OFFSET 0.000000 0.000000 0.000000
	CHANNELS 6 Xposition Yposition Zposition Xrotation Yrotation Zrotation
	JOINT LeftUpLeg_virtual
	{
		OFFSET 0.000000 0.000000 0.000000
		CHANNELS 3 Xrotation Yrotation Zrotation
		JOINT LeftUpLeg
		{
			OFFSET 11.394100 -6.187798 -0.413800
			CHANNELS 3 Xrotation Yrotation Zrotation
			JOINT LeftLeg
			{
				OFFSET 0.430247 -32.302673 3.732800
				CHANNELS 3 Xrotation Yrotation Zrotation
				JOINT LeftFoot
				{
					OFFSET -0.430247 -48.264931 -6.423300
					CHANNELS 3 Xrotation Yrotation Zrotation
					JOINT LeftToeBase
					{
						OFFSET 4.230900 -16.068199 23.438400
						CHANNELS 3 Xrotation Yrotation Zrotation
						JOINT LeftToe_End
						{
							OFFSET 4.510700 0.695400 19.974600
							CHANNELS 3 Xrotation Yrotation Zrotation
							End Site
							{
								OFFSET 0 0 0
							}
						}
					}
				}
			}
		}
	}
	JOINT RightUpLeg_virtual
	{
		OFFSET 0.000000 0.000000 0.000000
		CHANNELS 3 Xrotation Yrotation Zrotation
		JOINT RightUpLeg
		{
			OFFSET -11.333700 -6.187798 -0.413800
			CHANNELS 3 Xrotation Yrotation Zrotation
			JOINT RightLeg
			{
				OFFSET -0.430392 -32.302628 3.733000
				CHANNELS 3 Xrotation Yrotation Zrotation
				JOINT RightFoot
				{
					OFFSET 0.430392 -48.264973 -6.423500
					CHANNELS 3 Xrotation Yrotation Zrotation
					JOINT RightToeBase
					{
						OFFSET -4.230900 -16.068199 23.438400
						CHANNELS 3 Xrotation Yrotation Zrotation
						JOINT RightToe_End
						{
							OFFSET -4.510700 0.695400 19.974600
							CHANNELS 3 Xrotation Yrotation Zrotation
							End Site
							{
								OFFSET 0 0 0
							}
						}
					}
				}
			}
		}
	}
	JOINT Spine_virtual
	{
		OFFSET 0.000000 0.000000 0.000000
		CHANNELS 3 Xrotation Yrotation Zrotation
		JOINT Spine
		{
			OFFSET -0.002400 12.777504 0.315300
			CHANNELS 3 Xrotation Yrotation Zrotation
			JOINT Spine1
			{
				OFFSET -0.002067 5.816869 0.032633
				CHANNELS 3 Xrotation Yrotation Zrotation
				JOINT Spine1_split
				{
					OFFSET -0.002067 5.816869 0.032633
					CHANNELS 3 Xrotation Yrotation Zrotation
					JOINT Spine2
					{
						OFFSET -0.002067 5.816869 0.032633
						CHANNELS 3 Xrotation Yrotation Zrotation
						JOINT Neck_virtual
						{
							OFFSET 0.000000 0.000000 0.000000
							CHANNELS 3 Xrotation Yrotation Zrotation
							JOINT Neck
							{
								OFFSET -0.003700 21.199493 -0.826900
								CHANNELS 3 Xrotation Yrotation Zrotation
								JOINT Head
								{
									OFFSET 0.000000 20.442200 4.834800
									CHANNELS 3 Xrotation Yrotation Zrotation
									JOINT HeadTop_End
									{
										OFFSET 0.000000 34.668396 4.968400
										CHANNELS 3 Xrotation Yrotation Zrotation
										End Site
										{
											OFFSET 0 0 0
										}
									}
								}
							}
						}
						JOINT LeftShoulder_virtual
						{
							OFFSET 0.000000 0.000000 0.000000
							CHANNELS 3 Xrotation Yrotation Zrotation
							JOINT LeftShoulder
							{
								OFFSET 3.288150 8.794197 -1.372250
								CHANNELS 3 Xrotation Yrotation Zrotation
								JOINT LeftShoulder_split
								{
									OFFSET 3.288150 8.794197 -1.372250
									CHANNELS 3 Xrotation Yrotation Zrotation
									JOINT LeftArm
									{
										OFFSET 11.953299 -2.279007 -0.146200
										CHANNELS 3 Xrotation Yrotation Zrotation
										JOINT LeftForeArm
										{
											OFFSET 18.448900 0.000000 0.000000
											CHANNELS 3 Xrotation Yrotation Zrotation
											JOINT LeftHand
											{
												OFFSET 29.527798 0.000000 0.000000
												CHANNELS 3 Xrotation Yrotation Zrotation
												End Site
												{
													OFFSET 0 0 0
												}
											}
										}
									}
								}
							}
						}
						JOINT RightShoulder_virtual
						{
							OFFSET 0.000000 0.000000 0.000000
							CHANNELS 3 Xrotation Yrotation Zrotation
							JOINT RightShoulder
							{
								OFFSET -3.249400 8.794197 -1.372250
								CHANNELS 3 Xrotation Yrotation Zrotation
								JOINT RightShoulder_split
								{
									OFFSET -3.249400 8.794197 -1.372250
									CHANNELS 3 Xrotation Yrotation Zrotation
									JOINT RightArm
									{
										OFFSET -11.953299 -2.279007 -0.146200
										CHANNELS 3 Xrotation Yrotation Zrotation
										JOINT RightForeArm
										{
											OFFSET -18.448900 0.000000 0.000000
											CHANNELS 3 Xrotation Yrotation Zrotation
											JOINT RightHand
											{
												OFFSET -29.527802 0.000000 0.000000
												CHANNELS 3 Xrotation Yrotation Zrotation
												End Site
												{
													OFFSET 0 0 0
												}
											}
										}
									}
								}
							}
						}
					}
				}
			}
		}
	}
}
MOTION
Frames: 4
Frame Time: 0.03333333
-7.803411 89.571243 -4.998474 0.000000 0.000000 0.000000 22.656653 -64.919322 16.187931 -65.634525 -16.206750 14.616559 43.915377 -5.565686 8.059943 4.565491 3.212710 -14.930121 -3.374458 3.695586 -1.323778 0.000000 0.000000 0.000000 18.862134 -68.879774 15.383029 -58.475497 -1.159598 -15.442201 59.271487 -8.113535 1.969064 18.218420 0.209609 19.210228 -5.921831 -0.838664 6.370217 0.000000 0.000000 0.000000 25.593340 -66.934775 18.188273 8.964066 7.928415 -2.737495 -0.560361 11.442132 3.140031 0.038741 1.297929 0.230531 0.000000 0.000000 0.000000 10.989721 12.625831 0.568400 -0.239676 10.346380 -5.964831 -12.155044 9.716736 8.200162 0.000000 0.000000 0.000000 4.799019 13.912592 1.103539 5.908042 6.517895 -7.638252 9.519451 6.784910 -1.716352 -61.891042 -31.833818 -45.380525 6.424458 -78.287164 3.170450 0.000000 0.000000 0.000000 6.191103 12.931689 1.718388 -13.843809 4.097203 -1.686455 -4.035636 -1.838233 -9.179641 -78.747717 39.085761 106.695198 -8.014319 47.863643 6.305408 0.000000 0.000000 0.000000 
-7.532186 90.832214 -10.913483 0.000000 0.000000 0.000000 21.107351 -62.480412 13.315507 -67.480568 -15.125483 12.029610 43.938597 -3.530232 6.883434 6.767647 2.921883 -14.545026 -2.877641 3.296333 -1.790977 0.000000 0.000000 0.000000 18.802534 -68.657943 14.105970 -57.448742 -2.615743 -13.672617 57.165285 -6.375073 1.092706 19.094562 2.977354 22.957183 -7.996025 -0.205168 3.718021 0.000000 0.000000 0.000000 27.996377 -68.450243 19.752916 8.118012 8.092330 -1.914120 -1.006549 11.555504 3.312154 -0.241074 0.817145 0.305608 0.000000 0.000000 0.000000 11.050202 12.894666 0.601920 0.746150 10.349364 -6.586719 -11.577273 10.570362 7.653850 0.000000 0.000000 0.000000 4.902093 14.024508 1.159829 5.737501 6.458466 -7.639712 9.469250 7.083714 -1.667622 -61.810350 -31.655113 -44.746065 5.730233 -77.461626 2.196721 0.000000 0.000000 0.000000 6.248227 13.192454 1.866323 -13.530075 4.753327 -1.733700 -4.457935 -1.926835 -10.137830 -78.366722 37.978020 105.515289 -7.731107 46.996421 6.046236 0.000000 0.000000 0.000000 
-7.078954 92.041000 -17.751057 0.000000 0.000000 0.000000 20.313792 -62.939333 11.466843 -67.882067 -10.965952 9.516636 43.711681 -1.337613 4.949110 11.156945 1.195642 -14.854043 -1.961749 2.426016 -1.029637 0.000000 0.000000 0.000000 21.452823 -69.832264 14.645136 -54.180185 -4.931096 -9.758018 53.380421 -5.851336 0.205705 16.769706 3.836672 24.216400 -8.792160 0.161610 0.629675 0.000000 0.000000 0.000000 31.542715 -71.498666 22.551283 7.030067 8.534814 -0.708413 -1.195766 11.885613 3.645645 -0.013588 0.759498 0.599881 0.000000 0.000000 0.000000 11.197930 13.369033 0.935787 1.689926 10.340687 -7.856184 -10.085626 11.468423 5.924327 0.000000 0.000000 0.000000 5.206892 14.298699 1.478954 5.606004 6.204164 -8.025872 9.918408 7.127398 -1.762782 -61.436951 -32.182151 -44.643004 7.277758 -77.813927 3.313146 0.000000 0.000000 0.000000 6.426052 13.614753 2.315947 -13.120384 5.811281 -1.583798 -4.899184 -2.005051 -10.328773 -78.010384 38.100195 103.727863 -7.294371 46.462304 5.629794 0.000000 0.000000 0.000000 
-6.802336 92.513077 -25.112156 0.000000 0.000000 0.000000 21.679712 -67.194377 12.162870 -67.057657 -5.372818 7.602575 44.143188 0.520935 2.813756 16.072103 -1.258295 -15.383992 -1.125001 1.401694 0.737579 0.000000 0.000000 0.000000 26.892599 -72.927774 18.006820 -50.274266 -7.467806 -5.506258 50.676892 -6.801106 -0.277104 11.625412 2.036231 22.296434 -7.817152 0.074809 -2.274331 0.000000 0.000000 0.000000 37.958483 -75.451399 28.289653 5.987048 9.124419 0.553610 -1.200654 12.395037 4.092500 0.364794 0.794034 0.915937 0.000000 0.000000 0.000000 11.238546 13.987580 1.504745 2.495695 10.258381 -9.362018 -8.358675 12.378126 3.450903 0.000000 0.000000 0.000000 5.564897 14.711548 1.978271 5.561350 5.903207 -8.710952 10.924087 6.806109 -1.859065 -60.485150 -33.257800 -44.817898 10.443743 -78.803758 5.972896 0.000000 0.000000 0.000000 6.704804 14.168264 2.960570 -12.693023 7.122222 -1.305198 -5.462415 -1.800638 -10.190120 -77.349741 39.059912 101.758672 -6.778283 46.239766 5.105156 0.000000 0.000000 0.000000 
